# xmcd CD database file
#
# Track frame offsets:
#	150
#	17729
#	33424
#	51449
#	75479
#	94167
#	108663
#	129544
#	150706
#	170752
#	187461
#	199994
#	215875
#	230110
#	246602
#	260835
#	287114
#	310116
#
# Disc length: 4431 seconds
#
# Revision: 2
# Processed by: cddbd v1.4b41PL1 Copyright (c) Steve Scherf et al.
# Submitted via: Feurio! 1.50.2ß - http://www.feurio.com
#
DISCID=21114d12
DTITLE=Various Artist - Disco House
DYEAR=1900
DGENRE=
TTITLE0=Triple X - Feel The Same
TTITLE1=Nerio's Dubwork feat. Darryl Pandy - Sunshine and Happiness
TTITLE2=Cunnie Williams - Saturday
TTITLE3=Bini and Martini - Happiness
TTITLE4=Grant Nelson feat. Jean McClain - Step 2 Me
TTITLE5=Eddie Amador - Rise
TTITLE6=Masters At Work feat. India - To Be In Love
TTITLE7=Full Intention - Everybody Loves The Sunshine
TTITLE8=Collorfull Karma feat. Terra Deva - For The Music
TTITLE9=Potatoheads - Pomp It Up
TTITLE10=PJ - Happy Days
TTITLE11=Phats and Small - Feel Good
TTITLE12=Beatfreaks - U Got The Feeling
TTITLE13=H.A.N.Z. vs Siemion - I've Got It
TTITLE14=Choo Choo Project - Hazin' and Phazin'
TTITLE15=Joey Negro feat. Taka Boom - Must Be Music
TTITLE16=Canova - Sweetness
TTITLE17=Phunkie Souls - Tha Musik
EXTD=
EXTT0=
EXTT1=
EXTT2=
EXTT3=
EXTT4=
EXTT5=
EXTT6=
EXTT7=
EXTT8=
EXTT9=
EXTT10=
EXTT11=
EXTT12=
EXTT13=
EXTT14=
EXTT15=
EXTT16=
EXTT17=
PLAYORDER=
